<mxfile host="Electron" agent="Mozilla/5.0 (Windows NT 10.0; Win64; x64) AppleWebKit/537.36 (KHTML, like Gecko) draw.io/28.0.6 Chrome/138.0.7204.100 Electron/37.2.3 Safari/537.36" version="28.0.6">
  <diagram name="Page-1" id="R90nyv3Rz4XIFROkiVHW">
    <mxGraphModel dx="2037" dy="1213" grid="1" gridSize="10" guides="1" tooltips="1" connect="1" arrows="1" fold="1" page="1" pageScale="1" pageWidth="1600" pageHeight="1200" math="0" shadow="0">
      <root>
        <mxCell id="0" />
        <mxCell id="1" parent="0" />
        <mxCell id="1lQt2iCKs8pIlGNOvXYT-43" value="" style="whiteSpace=wrap;html=1;opacity=90;perimeterSpacing=1;fontStyle=1;spacing=0;" parent="1" vertex="1">
          <mxGeometry x="390" y="221" width="260" height="800" as="geometry" />
        </mxCell>
        <mxCell id="B_tfwksmqr3Z3jyx1dYL-27" style="edgeStyle=orthogonalEdgeStyle;rounded=0;orthogonalLoop=1;jettySize=auto;html=1;exitX=1;exitY=0.5;exitDx=0;exitDy=0;entryX=0;entryY=0.5;entryDx=0;entryDy=0;" edge="1" parent="1" source="rxIv7JKoTVmc35k2_a1N-58" target="3E_d9uGPmS8snrze4PGS-29">
          <mxGeometry relative="1" as="geometry">
            <Array as="points">
              <mxPoint x="930" y="621" />
            </Array>
          </mxGeometry>
        </mxCell>
        <mxCell id="rxIv7JKoTVmc35k2_a1N-58" value="" style="rounded=0;whiteSpace=wrap;html=1;container=0;" parent="1" vertex="1">
          <mxGeometry x="710" y="221" width="130" height="800" as="geometry" />
        </mxCell>
        <mxCell id="rxIv7JKoTVmc35k2_a1N-33" style="rounded=0;orthogonalLoop=1;jettySize=auto;html=1;exitX=0.25;exitY=1;exitDx=0;exitDy=0;entryX=0.238;entryY=-0.011;entryDx=0;entryDy=0;entryPerimeter=0;" parent="1" source="3E_d9uGPmS8snrze4PGS-16" target="GmHCTYgidwJcOvD8zUk5-22" edge="1">
          <mxGeometry relative="1" as="geometry" />
        </mxCell>
        <mxCell id="rxIv7JKoTVmc35k2_a1N-39" value="&lt;b&gt;State&amp;nbsp;&lt;/b&gt;&lt;div&gt;&lt;b&gt;Update&lt;/b&gt;&lt;/div&gt;" style="edgeLabel;html=1;align=center;verticalAlign=middle;resizable=0;points=[];" parent="rxIv7JKoTVmc35k2_a1N-33" vertex="1" connectable="0">
          <mxGeometry x="-0.0672" y="-3" relative="1" as="geometry">
            <mxPoint as="offset" />
          </mxGeometry>
        </mxCell>
        <mxCell id="3E_d9uGPmS8snrze4PGS-16" value="wn = [&amp;nbsp; wn&lt;sub&gt;1&lt;/sub&gt; wn&lt;sub&gt;2&lt;/sub&gt; wn&lt;sub&gt;3&amp;nbsp;&lt;/sub&gt;]&lt;div&gt;xd = ctrlPoint 1&lt;/div&gt;" style="rounded=1;whiteSpace=wrap;html=1;shadow=0;fontStyle=1" parent="1" vertex="1">
          <mxGeometry x="440" y="291" width="165" height="60" as="geometry" />
        </mxCell>
        <mxCell id="3E_d9uGPmS8snrze4PGS-25" value="Final point" style="rounded=1;whiteSpace=wrap;html=1;shadow=0;fontStyle=1" parent="1" vertex="1">
          <mxGeometry x="20" y="611" width="120" height="60" as="geometry" />
        </mxCell>
        <mxCell id="3E_d9uGPmS8snrze4PGS-33" value="" style="rounded=0;orthogonalLoop=1;jettySize=auto;html=1;fontStyle=1" parent="1" source="3E_d9uGPmS8snrze4PGS-29" target="3E_d9uGPmS8snrze4PGS-32" edge="1">
          <mxGeometry relative="1" as="geometry" />
        </mxCell>
        <mxCell id="3E_d9uGPmS8snrze4PGS-29" value="" style="ellipse;whiteSpace=wrap;html=1;fontStyle=1" parent="1" vertex="1">
          <mxGeometry x="950" y="606" width="30" height="30" as="geometry" />
        </mxCell>
        <mxCell id="3E_d9uGPmS8snrze4PGS-35" value="" style="rounded=0;orthogonalLoop=1;jettySize=auto;html=1;fontStyle=1" parent="1" source="3E_d9uGPmS8snrze4PGS-32" target="3E_d9uGPmS8snrze4PGS-34" edge="1">
          <mxGeometry relative="1" as="geometry" />
        </mxCell>
        <mxCell id="3E_d9uGPmS8snrze4PGS-32" value="PD Controller" style="whiteSpace=wrap;html=1;fontStyle=1" parent="1" vertex="1">
          <mxGeometry x="1010" y="591" width="120" height="60" as="geometry" />
        </mxCell>
        <mxCell id="3E_d9uGPmS8snrze4PGS-37" value="" style="rounded=0;orthogonalLoop=1;jettySize=auto;html=1;entryX=-0.028;entryY=0.503;entryDx=0;entryDy=0;entryPerimeter=0;fontStyle=1" parent="1" source="3E_d9uGPmS8snrze4PGS-34" target="3E_d9uGPmS8snrze4PGS-50" edge="1">
          <mxGeometry relative="1" as="geometry">
            <mxPoint x="1335" y="610" as="targetPoint" />
          </mxGeometry>
        </mxCell>
        <mxCell id="3E_d9uGPmS8snrze4PGS-34" value="Plant" style="whiteSpace=wrap;html=1;fontStyle=1" parent="1" vertex="1">
          <mxGeometry x="1190" y="593" width="120" height="60" as="geometry" />
        </mxCell>
        <mxCell id="3E_d9uGPmS8snrze4PGS-39" value="" style="rounded=0;orthogonalLoop=1;jettySize=auto;html=1;exitX=1;exitY=0.5;exitDx=0;exitDy=0;fontStyle=1" parent="1" source="3E_d9uGPmS8snrze4PGS-50" target="3E_d9uGPmS8snrze4PGS-38" edge="1">
          <mxGeometry relative="1" as="geometry">
            <mxPoint x="1380" y="610" as="sourcePoint" />
          </mxGeometry>
        </mxCell>
        <mxCell id="3E_d9uGPmS8snrze4PGS-40" style="edgeStyle=none;rounded=0;orthogonalLoop=1;jettySize=auto;html=1;exitX=1;exitY=0.5;exitDx=0;exitDy=0;entryX=0.5;entryY=1;entryDx=0;entryDy=0;fontStyle=1" parent="1" source="3E_d9uGPmS8snrze4PGS-38" target="3E_d9uGPmS8snrze4PGS-29" edge="1">
          <mxGeometry relative="1" as="geometry">
            <Array as="points">
              <mxPoint x="1520" y="623" />
              <mxPoint x="1520" y="701" />
              <mxPoint x="1520" y="791" />
              <mxPoint x="965" y="790" />
            </Array>
          </mxGeometry>
        </mxCell>
        <mxCell id="3E_d9uGPmS8snrze4PGS-38" value="1/s" style="whiteSpace=wrap;html=1;fontStyle=1" parent="1" vertex="1">
          <mxGeometry x="1450" y="593" width="35" height="60" as="geometry" />
        </mxCell>
        <mxCell id="3E_d9uGPmS8snrze4PGS-50" value="1/s" style="whiteSpace=wrap;html=1;fontStyle=1" parent="1" vertex="1">
          <mxGeometry x="1350" y="593" width="35" height="60" as="geometry" />
        </mxCell>
        <mxCell id="rxIv7JKoTVmc35k2_a1N-36" style="rounded=0;orthogonalLoop=1;jettySize=auto;html=1;exitX=0.23;exitY=0.99;exitDx=0;exitDy=0;entryX=0.227;entryY=0.012;entryDx=0;entryDy=0;entryPerimeter=0;exitPerimeter=0;dashed=1;dashPattern=12 12;" parent="1" source="GmHCTYgidwJcOvD8zUk5-22" target="1lQt2iCKs8pIlGNOvXYT-6" edge="1">
          <mxGeometry relative="1" as="geometry">
            <mxPoint x="461" y="531" as="sourcePoint" />
            <mxPoint x="466" y="680.9999999999999" as="targetPoint" />
          </mxGeometry>
        </mxCell>
        <mxCell id="rxIv7JKoTVmc35k2_a1N-38" value="&lt;b&gt;State&amp;nbsp;&lt;/b&gt;&lt;div&gt;&lt;b&gt;Update&lt;/b&gt;&lt;/div&gt;" style="edgeLabel;html=1;align=center;verticalAlign=middle;resizable=0;points=[];" parent="rxIv7JKoTVmc35k2_a1N-36" vertex="1" connectable="0">
          <mxGeometry x="-0.0856" relative="1" as="geometry">
            <mxPoint as="offset" />
          </mxGeometry>
        </mxCell>
        <mxCell id="GmHCTYgidwJcOvD8zUk5-22" value="wn = [&amp;nbsp; wn&lt;sub&gt;1&lt;/sub&gt;&amp;nbsp;wn&lt;sub&gt;2&lt;/sub&gt;&amp;nbsp;wn&lt;sub&gt;3&amp;nbsp;&lt;/sub&gt;]&lt;div&gt;xd = ctrlPoint 2&lt;/div&gt;" style="rounded=1;whiteSpace=wrap;html=1;shadow=0;dashed=1;dashPattern=12 12;fontStyle=1" parent="1" vertex="1">
          <mxGeometry x="440" y="491" width="170" height="60" as="geometry" />
        </mxCell>
        <mxCell id="B_tfwksmqr3Z3jyx1dYL-38" style="edgeStyle=orthogonalEdgeStyle;rounded=0;orthogonalLoop=1;jettySize=auto;html=1;exitX=0.25;exitY=1;exitDx=0;exitDy=0;entryX=0.25;entryY=0;entryDx=0;entryDy=0;dashed=1;dashPattern=12 12;" edge="1" parent="1" source="1lQt2iCKs8pIlGNOvXYT-6" target="B_tfwksmqr3Z3jyx1dYL-4">
          <mxGeometry relative="1" as="geometry" />
        </mxCell>
        <mxCell id="1lQt2iCKs8pIlGNOvXYT-6" value="wn = [&amp;nbsp; wn&lt;sub&gt;1&lt;/sub&gt;&amp;nbsp;wn&lt;sub&gt;2&lt;/sub&gt;&amp;nbsp;wn&lt;sub&gt;3&amp;nbsp;&lt;/sub&gt;]&lt;div&gt;xd = ctrlPoint 3&lt;/div&gt;" style="rounded=1;whiteSpace=wrap;html=1;shadow=0;dashed=1;dashPattern=12 12;fontStyle=1;spacing=0;" parent="1" vertex="1">
          <mxGeometry x="440" y="691" width="170" height="60" as="geometry" />
        </mxCell>
        <mxCell id="rxIv7JKoTVmc35k2_a1N-4" value="0 &amp;lt; t &amp;lt; t&lt;sub&gt;1&lt;/sub&gt;" style="text;html=1;align=center;verticalAlign=middle;whiteSpace=wrap;rounded=0;fontStyle=1" parent="1" vertex="1">
          <mxGeometry x="490" y="261" width="60" height="30" as="geometry" />
        </mxCell>
        <mxCell id="rxIv7JKoTVmc35k2_a1N-10" value="t&lt;sub&gt;1&lt;/sub&gt; &amp;lt;= t &amp;lt; t&lt;sub&gt;2&lt;/sub&gt;" style="text;html=1;align=center;verticalAlign=middle;whiteSpace=wrap;rounded=0;fontStyle=1" parent="1" vertex="1">
          <mxGeometry x="491.25" y="461" width="67.5" height="30" as="geometry" />
        </mxCell>
        <mxCell id="rxIv7JKoTVmc35k2_a1N-64" style="edgeStyle=orthogonalEdgeStyle;rounded=0;orthogonalLoop=1;jettySize=auto;html=1;exitX=1;exitY=0.5;exitDx=0;exitDy=0;entryX=0;entryY=0.5;entryDx=0;entryDy=0;" parent="1" source="3E_d9uGPmS8snrze4PGS-16" target="rxIv7JKoTVmc35k2_a1N-59" edge="1">
          <mxGeometry relative="1" as="geometry" />
        </mxCell>
        <mxCell id="rxIv7JKoTVmc35k2_a1N-65" style="rounded=0;orthogonalLoop=1;jettySize=auto;html=1;exitX=1;exitY=0.5;exitDx=0;exitDy=0;entryX=0;entryY=0.5;entryDx=0;entryDy=0;dashed=1;dashPattern=12 12;" parent="1" source="GmHCTYgidwJcOvD8zUk5-22" target="rxIv7JKoTVmc35k2_a1N-60" edge="1">
          <mxGeometry relative="1" as="geometry" />
        </mxCell>
        <mxCell id="rxIv7JKoTVmc35k2_a1N-66" style="rounded=0;orthogonalLoop=1;jettySize=auto;html=1;exitX=1;exitY=0.5;exitDx=0;exitDy=0;entryX=0;entryY=0.5;entryDx=0;entryDy=0;dashed=1;dashPattern=12 12;" parent="1" source="1lQt2iCKs8pIlGNOvXYT-6" target="rxIv7JKoTVmc35k2_a1N-61" edge="1">
          <mxGeometry relative="1" as="geometry" />
        </mxCell>
        <mxCell id="rxIv7JKoTVmc35k2_a1N-99" value="&lt;b&gt;&lt;font style=&quot;font-size: 14px;&quot;&gt;Bus&lt;/font&gt;&lt;/b&gt;" style="text;html=1;align=center;verticalAlign=middle;resizable=0;points=[];autosize=1;strokeColor=none;fillColor=none;" parent="1" vertex="1">
          <mxGeometry x="240" y="192" width="50" height="30" as="geometry" />
        </mxCell>
        <mxCell id="B_tfwksmqr3Z3jyx1dYL-21" style="rounded=0;orthogonalLoop=1;jettySize=auto;html=1;exitX=1;exitY=0.5;exitDx=0;exitDy=0;entryX=1;entryY=0.5;entryDx=0;entryDy=0;" edge="1" parent="1" source="rxIv7JKoTVmc35k2_a1N-59" target="rxIv7JKoTVmc35k2_a1N-58">
          <mxGeometry relative="1" as="geometry" />
        </mxCell>
        <mxCell id="rxIv7JKoTVmc35k2_a1N-59" value="" style="ellipse;whiteSpace=wrap;html=1;aspect=fixed;container=0;" parent="1" vertex="1">
          <mxGeometry x="730" y="311" width="20" height="20" as="geometry" />
        </mxCell>
        <mxCell id="B_tfwksmqr3Z3jyx1dYL-24" style="rounded=0;orthogonalLoop=1;jettySize=auto;html=1;exitX=1;exitY=0.5;exitDx=0;exitDy=0;entryX=1;entryY=0.5;entryDx=0;entryDy=0;dashed=1;dashPattern=12 12;" edge="1" parent="1" source="rxIv7JKoTVmc35k2_a1N-60" target="rxIv7JKoTVmc35k2_a1N-58">
          <mxGeometry relative="1" as="geometry" />
        </mxCell>
        <mxCell id="rxIv7JKoTVmc35k2_a1N-60" value="" style="ellipse;whiteSpace=wrap;html=1;aspect=fixed;container=0;" parent="1" vertex="1">
          <mxGeometry x="730" y="511" width="20" height="20" as="geometry" />
        </mxCell>
        <mxCell id="B_tfwksmqr3Z3jyx1dYL-25" style="rounded=0;orthogonalLoop=1;jettySize=auto;html=1;exitX=1;exitY=0.5;exitDx=0;exitDy=0;entryX=1.003;entryY=0.512;entryDx=0;entryDy=0;dashed=1;dashPattern=12 12;entryPerimeter=0;" edge="1" parent="1" source="rxIv7JKoTVmc35k2_a1N-61" target="rxIv7JKoTVmc35k2_a1N-58">
          <mxGeometry relative="1" as="geometry" />
        </mxCell>
        <mxCell id="rxIv7JKoTVmc35k2_a1N-61" value="" style="ellipse;whiteSpace=wrap;html=1;aspect=fixed;container=0;" parent="1" vertex="1">
          <mxGeometry x="730" y="711" width="20" height="20" as="geometry" />
        </mxCell>
        <mxCell id="rxIv7JKoTVmc35k2_a1N-78" value="" style="rounded=0;whiteSpace=wrap;html=1;container=0;" parent="1" vertex="1">
          <mxGeometry x="200" y="222" width="130" height="799" as="geometry" />
        </mxCell>
        <mxCell id="B_tfwksmqr3Z3jyx1dYL-7" style="edgeStyle=orthogonalEdgeStyle;rounded=0;orthogonalLoop=1;jettySize=auto;html=1;exitX=1;exitY=0.5;exitDx=0;exitDy=0;" edge="1" parent="1" source="rxIv7JKoTVmc35k2_a1N-79" target="3E_d9uGPmS8snrze4PGS-16">
          <mxGeometry relative="1" as="geometry" />
        </mxCell>
        <mxCell id="rxIv7JKoTVmc35k2_a1N-79" value="" style="ellipse;whiteSpace=wrap;html=1;aspect=fixed;container=0;" parent="1" vertex="1">
          <mxGeometry x="290" y="311" width="20" height="20" as="geometry" />
        </mxCell>
        <mxCell id="B_tfwksmqr3Z3jyx1dYL-8" style="edgeStyle=orthogonalEdgeStyle;rounded=0;orthogonalLoop=1;jettySize=auto;html=1;exitX=1;exitY=0.5;exitDx=0;exitDy=0;dashed=1;dashPattern=12 12;" edge="1" parent="1" source="rxIv7JKoTVmc35k2_a1N-80" target="GmHCTYgidwJcOvD8zUk5-22">
          <mxGeometry relative="1" as="geometry" />
        </mxCell>
        <mxCell id="rxIv7JKoTVmc35k2_a1N-80" value="" style="ellipse;whiteSpace=wrap;html=1;aspect=fixed;container=0;" parent="1" vertex="1">
          <mxGeometry x="290" y="511" width="20" height="20" as="geometry" />
        </mxCell>
        <mxCell id="B_tfwksmqr3Z3jyx1dYL-9" style="edgeStyle=orthogonalEdgeStyle;rounded=0;orthogonalLoop=1;jettySize=auto;html=1;exitX=1;exitY=0.5;exitDx=0;exitDy=0;entryX=0;entryY=0.5;entryDx=0;entryDy=0;dashed=1;dashPattern=12 12;" edge="1" parent="1" source="rxIv7JKoTVmc35k2_a1N-81" target="1lQt2iCKs8pIlGNOvXYT-6">
          <mxGeometry relative="1" as="geometry" />
        </mxCell>
        <mxCell id="rxIv7JKoTVmc35k2_a1N-81" value="" style="ellipse;whiteSpace=wrap;html=1;aspect=fixed;container=0;" parent="1" vertex="1">
          <mxGeometry x="290" y="711" width="20" height="20" as="geometry" />
        </mxCell>
        <mxCell id="B_tfwksmqr3Z3jyx1dYL-3" value="&lt;b&gt;&lt;font style=&quot;font-size: 14px;&quot;&gt;Bus&lt;/font&gt;&lt;/b&gt;" style="text;html=1;align=center;verticalAlign=middle;resizable=0;points=[];autosize=1;strokeColor=none;fillColor=none;" vertex="1" parent="1">
          <mxGeometry x="750" y="191" width="50" height="30" as="geometry" />
        </mxCell>
        <mxCell id="B_tfwksmqr3Z3jyx1dYL-12" style="edgeStyle=orthogonalEdgeStyle;rounded=0;orthogonalLoop=1;jettySize=auto;html=1;exitX=1;exitY=0.5;exitDx=0;exitDy=0;entryX=0;entryY=0.5;entryDx=0;entryDy=0;dashed=1;dashPattern=12 12;" edge="1" parent="1" source="B_tfwksmqr3Z3jyx1dYL-4" target="B_tfwksmqr3Z3jyx1dYL-5">
          <mxGeometry relative="1" as="geometry" />
        </mxCell>
        <mxCell id="B_tfwksmqr3Z3jyx1dYL-4" value="wn = [&amp;nbsp; wn&lt;sub&gt;1&lt;/sub&gt;&amp;nbsp;wn&lt;sub&gt;2&lt;/sub&gt;&amp;nbsp;wn&lt;sub&gt;3&amp;nbsp;&lt;/sub&gt;]&lt;div&gt;xd = Final Point&lt;/div&gt;" style="rounded=1;whiteSpace=wrap;html=1;shadow=0;dashed=1;dashPattern=12 12;fontStyle=1;spacing=0;" vertex="1" parent="1">
          <mxGeometry x="440" y="891" width="170" height="60" as="geometry" />
        </mxCell>
        <mxCell id="B_tfwksmqr3Z3jyx1dYL-26" style="rounded=0;orthogonalLoop=1;jettySize=auto;html=1;exitX=1;exitY=0.5;exitDx=0;exitDy=0;entryX=1;entryY=0.5;entryDx=0;entryDy=0;dashed=1;dashPattern=12 12;" edge="1" parent="1" source="B_tfwksmqr3Z3jyx1dYL-5" target="rxIv7JKoTVmc35k2_a1N-58">
          <mxGeometry relative="1" as="geometry" />
        </mxCell>
        <mxCell id="B_tfwksmqr3Z3jyx1dYL-5" value="" style="ellipse;whiteSpace=wrap;html=1;aspect=fixed;container=0;" vertex="1" parent="1">
          <mxGeometry x="730" y="911" width="20" height="20" as="geometry" />
        </mxCell>
        <mxCell id="B_tfwksmqr3Z3jyx1dYL-10" style="edgeStyle=orthogonalEdgeStyle;rounded=0;orthogonalLoop=1;jettySize=auto;html=1;exitX=1;exitY=0.5;exitDx=0;exitDy=0;entryX=0;entryY=0.5;entryDx=0;entryDy=0;dashed=1;dashPattern=12 12;" edge="1" parent="1" source="B_tfwksmqr3Z3jyx1dYL-6" target="B_tfwksmqr3Z3jyx1dYL-4">
          <mxGeometry relative="1" as="geometry" />
        </mxCell>
        <mxCell id="B_tfwksmqr3Z3jyx1dYL-6" value="" style="ellipse;whiteSpace=wrap;html=1;aspect=fixed;container=0;" vertex="1" parent="1">
          <mxGeometry x="290" y="911" width="20" height="20" as="geometry" />
        </mxCell>
        <mxCell id="B_tfwksmqr3Z3jyx1dYL-11" style="edgeStyle=orthogonalEdgeStyle;rounded=0;orthogonalLoop=1;jettySize=auto;html=1;exitX=1;exitY=0.5;exitDx=0;exitDy=0;entryX=-0.008;entryY=0.524;entryDx=0;entryDy=0;entryPerimeter=0;" edge="1" parent="1" source="3E_d9uGPmS8snrze4PGS-25" target="rxIv7JKoTVmc35k2_a1N-78">
          <mxGeometry relative="1" as="geometry" />
        </mxCell>
        <mxCell id="B_tfwksmqr3Z3jyx1dYL-14" style="rounded=0;orthogonalLoop=1;jettySize=auto;html=1;exitX=-0.011;exitY=0.523;exitDx=0;exitDy=0;entryX=0;entryY=0.5;entryDx=0;entryDy=0;exitPerimeter=0;" edge="1" parent="1" source="rxIv7JKoTVmc35k2_a1N-78" target="rxIv7JKoTVmc35k2_a1N-79">
          <mxGeometry relative="1" as="geometry" />
        </mxCell>
        <mxCell id="B_tfwksmqr3Z3jyx1dYL-15" style="rounded=0;orthogonalLoop=1;jettySize=auto;html=1;exitX=-0.004;exitY=0.525;exitDx=0;exitDy=0;entryX=0;entryY=0.5;entryDx=0;entryDy=0;exitPerimeter=0;dashed=1;dashPattern=12 12;" edge="1" parent="1" source="rxIv7JKoTVmc35k2_a1N-78" target="rxIv7JKoTVmc35k2_a1N-80">
          <mxGeometry relative="1" as="geometry" />
        </mxCell>
        <mxCell id="B_tfwksmqr3Z3jyx1dYL-16" style="rounded=0;orthogonalLoop=1;jettySize=auto;html=1;exitX=-0.01;exitY=0.524;exitDx=0;exitDy=0;entryX=0;entryY=0.5;entryDx=0;entryDy=0;exitPerimeter=0;dashed=1;dashPattern=12 12;" edge="1" parent="1" source="rxIv7JKoTVmc35k2_a1N-78" target="rxIv7JKoTVmc35k2_a1N-81">
          <mxGeometry relative="1" as="geometry" />
        </mxCell>
        <mxCell id="B_tfwksmqr3Z3jyx1dYL-18" style="rounded=0;orthogonalLoop=1;jettySize=auto;html=1;exitX=0.004;exitY=0.524;exitDx=0;exitDy=0;entryX=0;entryY=0.5;entryDx=0;entryDy=0;exitPerimeter=0;dashed=1;dashPattern=12 12;" edge="1" parent="1" source="rxIv7JKoTVmc35k2_a1N-78" target="B_tfwksmqr3Z3jyx1dYL-6">
          <mxGeometry relative="1" as="geometry" />
        </mxCell>
        <mxCell id="B_tfwksmqr3Z3jyx1dYL-19" value="&lt;font&gt;.&lt;/font&gt;&lt;div&gt;&lt;font&gt;.&lt;/font&gt;&lt;/div&gt;&lt;div&gt;&lt;font&gt;.&lt;/font&gt;&lt;/div&gt;" style="text;html=1;align=center;verticalAlign=middle;whiteSpace=wrap;rounded=0;fontStyle=1;fontSize=36;" vertex="1" parent="1">
          <mxGeometry x="270" y="787" width="60" height="30" as="geometry" />
        </mxCell>
        <mxCell id="B_tfwksmqr3Z3jyx1dYL-20" value="Phase 1" style="text;html=1;align=center;verticalAlign=middle;resizable=0;points=[];autosize=1;strokeColor=none;fillColor=none;rotation=288;fontStyle=1" vertex="1" parent="1">
          <mxGeometry x="190" y="471" width="70" height="30" as="geometry" />
        </mxCell>
        <mxCell id="B_tfwksmqr3Z3jyx1dYL-32" value="Phase 2" style="text;html=1;align=center;verticalAlign=middle;resizable=0;points=[];autosize=1;strokeColor=none;fillColor=none;rotation=307;fontStyle=1" vertex="1" parent="1">
          <mxGeometry x="207.00144254755045" y="544.0022329859546" width="70" height="30" as="geometry" />
        </mxCell>
        <mxCell id="B_tfwksmqr3Z3jyx1dYL-36" value="Phase 3" style="text;html=1;align=center;verticalAlign=middle;resizable=0;points=[];autosize=1;strokeColor=none;fillColor=none;rotation=40;fontStyle=1" vertex="1" parent="1">
          <mxGeometry x="212.04305846103108" y="650.979468198936" width="70" height="30" as="geometry" />
        </mxCell>
        <mxCell id="B_tfwksmqr3Z3jyx1dYL-37" value="Phase n" style="text;html=1;align=center;verticalAlign=middle;resizable=0;points=[];autosize=1;strokeColor=none;fillColor=none;rotation=72;fontStyle=1" vertex="1" parent="1">
          <mxGeometry x="238.45336965446234" y="790.9882329858135" width="70" height="30" as="geometry" />
        </mxCell>
        <mxCell id="B_tfwksmqr3Z3jyx1dYL-39" value="&lt;span style=&quot;color: rgb(0, 0, 0); font-family: Helvetica; font-size: 12px; font-style: normal; font-variant-ligatures: normal; font-variant-caps: normal; font-weight: 700; letter-spacing: normal; orphans: 2; text-align: center; text-indent: 0px; text-transform: none; widows: 2; word-spacing: 0px; -webkit-text-stroke-width: 0px; white-space: normal; background-color: rgb(236, 236, 236); text-decoration-thickness: initial; text-decoration-style: initial; text-decoration-color: initial; display: inline !important; float: none;&quot;&gt;t&lt;sub&gt;2&lt;/sub&gt; &amp;lt;= t &amp;lt; t&lt;sub&gt;3&lt;/sub&gt;&lt;/span&gt;" style="text;whiteSpace=wrap;html=1;" vertex="1" parent="1">
          <mxGeometry x="488" y="663" width="90" height="40" as="geometry" />
        </mxCell>
        <mxCell id="B_tfwksmqr3Z3jyx1dYL-40" value="Phase 1" style="text;html=1;align=center;verticalAlign=middle;resizable=0;points=[];autosize=1;strokeColor=none;fillColor=none;rotation=72;fontStyle=1" vertex="1" parent="1">
          <mxGeometry x="764.0814425475505" y="427.0022329859546" width="70" height="30" as="geometry" />
        </mxCell>
        <mxCell id="B_tfwksmqr3Z3jyx1dYL-41" value="Phase 2" style="text;html=1;align=center;verticalAlign=middle;resizable=0;points=[];autosize=1;strokeColor=none;fillColor=none;rotation=53;fontStyle=1" vertex="1" parent="1">
          <mxGeometry x="753.0430584610311" y="536.979468198936" width="70" height="30" as="geometry" />
        </mxCell>
        <mxCell id="B_tfwksmqr3Z3jyx1dYL-42" value="Phase 3" style="text;html=1;align=center;verticalAlign=middle;resizable=0;points=[];autosize=1;strokeColor=none;fillColor=none;rotation=314;fontStyle=1" vertex="1" parent="1">
          <mxGeometry x="746.0033696544622" y="650.9982329858135" width="70" height="30" as="geometry" />
        </mxCell>
        <mxCell id="B_tfwksmqr3Z3jyx1dYL-43" value="Phase n" style="text;html=1;align=center;verticalAlign=middle;resizable=0;points=[];autosize=1;strokeColor=none;fillColor=none;rotation=288;fontStyle=1" vertex="1" parent="1">
          <mxGeometry x="740.0014425475504" y="790.9922329859546" width="70" height="30" as="geometry" />
        </mxCell>
        <mxCell id="B_tfwksmqr3Z3jyx1dYL-44" value="&lt;font&gt;.&lt;/font&gt;&lt;div&gt;&lt;font&gt;.&lt;/font&gt;&lt;/div&gt;&lt;div&gt;&lt;font&gt;.&lt;/font&gt;&lt;/div&gt;" style="text;html=1;align=center;verticalAlign=middle;whiteSpace=wrap;rounded=0;fontStyle=1;fontSize=35;" vertex="1" parent="1">
          <mxGeometry x="710" y="787" width="60" height="30" as="geometry" />
        </mxCell>
        <mxCell id="B_tfwksmqr3Z3jyx1dYL-45" value="&lt;span style=&quot;color: rgb(0, 0, 0); font-family: Helvetica; font-size: 12px; font-style: normal; font-variant-ligatures: normal; font-variant-caps: normal; font-weight: 700; letter-spacing: normal; orphans: 2; text-align: center; text-indent: 0px; text-transform: none; widows: 2; word-spacing: 0px; -webkit-text-stroke-width: 0px; white-space: normal; background-color: rgb(236, 236, 236); text-decoration-thickness: initial; text-decoration-style: initial; text-decoration-color: initial; display: inline !important; float: none;&quot;&gt;t &amp;lt; t&lt;/span&gt;&lt;span style=&quot;color: rgb(0, 0, 0); font-family: Helvetica; font-style: normal; font-variant-ligatures: normal; font-variant-caps: normal; font-weight: 700; letter-spacing: normal; orphans: 2; text-align: center; text-indent: 0px; text-transform: none; widows: 2; word-spacing: 0px; -webkit-text-stroke-width: 0px; white-space: normal; background-color: rgb(236, 236, 236); text-decoration-thickness: initial; text-decoration-style: initial; text-decoration-color: initial; float: none; display: inline !important; font-size: 10px;&quot;&gt;&lt;sub&gt;n&lt;/sub&gt;&lt;/span&gt;" style="text;whiteSpace=wrap;html=1;" vertex="1" parent="1">
          <mxGeometry x="495" y="861" width="90" height="40" as="geometry" />
        </mxCell>
        <mxCell id="B_tfwksmqr3Z3jyx1dYL-47" value="&lt;font style=&quot;font-size: 14px;&quot;&gt;&lt;b style=&quot;&quot;&gt;PreFilter&lt;/b&gt;&lt;/font&gt;" style="text;html=1;align=center;verticalAlign=middle;resizable=0;points=[];autosize=1;strokeColor=none;fillColor=none;" vertex="1" parent="1">
          <mxGeometry x="485" y="192" width="80" height="30" as="geometry" />
        </mxCell>
        <mxCell id="B_tfwksmqr3Z3jyx1dYL-48" value="&lt;b&gt;State&amp;nbsp;&lt;/b&gt;&lt;div&gt;&lt;b&gt;Update&lt;/b&gt;&lt;/div&gt;" style="edgeLabel;html=1;align=center;verticalAlign=middle;resizable=0;points=[];" vertex="1" connectable="0" parent="1">
          <mxGeometry x="470" y="810" as="geometry">
            <mxPoint x="10" as="offset" />
          </mxGeometry>
        </mxCell>
      </root>
    </mxGraphModel>
  </diagram>
</mxfile>
